<svg height="73" viewBox="0 0 73 73" width="73" xmlns="http://www.w3.org/2000/svg"><g fill="none" fill-rule="nonzero"><rect fill="#fff" height="71" rx="14" stroke="#091e2e" stroke-width="2" width="71" x="1" y="1"/><g transform="translate(10 13)"><path d="m37.1548522 37.2802062c.3247621-2.7027653.2275403-3.0995129 2.2406516-2.6613943l.5109315.0446806c1.5481016.0703307 3.5732104-.2490532 4.7630394-.8017693 2.5612766-1.1885879 4.0795911-3.1723258 1.554721-2.6514653-5.7604935 1.1885879-6.1564137-.7620532-6.1564137-.7620532 6.0827734-9.0250766 8.625433-20.48193863 6.4302895-23.28647652-5.986379-7.64907818-16.3485652-4.03201449-16.5219096-3.9385161l-.0554371.01034274c-1.1381153-.23622822-2.4119274-.37730322-3.8429491-.40047097-2.6067847-.0430258-4.5847307.68344839-6.0852557 1.82114999 0 0-18.48578936-7.6159814-17.62568695 9.57779266.18285968 3.6576073 5.242529 27.6763499 11.27772575 20.421537 2.2059-2.6527064 4.3373322-4.8958403 4.3373322-4.8958403 1.0582694.7028928 2.3258758 1.0619927 3.6547113.9329153l.1030137-.0877064c-.0322694.3293129-.0182032.6515927.0409573 1.033033-1.5543073 1.737167-1.0975718 2.042071-4.2057726 2.6816662-3.1450209.6478693-1.2973935 1.8017056-.0914298 2.1032999 1.4624637.3657194 4.8453677.8836839 7.1315273-2.3159467l-.0910161.3648919c.6098081.4881774.5688508 3.5070169.6549024 5.6636855.0864654 2.1570822.23085 4.1697798.6706234 5.3567128.4397734 1.1865194.9585653 4.2430065 5.0435347 3.3675968 3.4139322-.7297839 6.0240265-1.782675 6.2619096-11.5776653" fill="#000"/><path d="m29.562866 50.9921997c-1.8066702 0-2.9832605-.6987556-3.6977371-1.3735161-1.0785411-1.0177258-1.5063169-2.3287718-1.7619895-3.1119242l-.1104605-.3268306c-.5146548-1.3892371-.6892403-3.3895234-.7926677-5.9652798-.015721-.3868186-.0264775-.785221-.038475-1.2076186-.0086879-.3090411-.0194444-.6966871-.0351654-1.1021226-.6424911.3069726-1.3292492.5254113-2.0528274.6486968-1.2738121.2176113-2.6431911.1472807-4.0709032-.2097508-1.007383-.2519492-2.0540685-.7740508-2.6506379-1.580371-1.7388217 1.5228654-3.3973838 1.3164242-4.3009257 1.0148299-1.59402342-.531617-3.02049438-2.0255226-4.36132744-4.5661137-.95525564-1.8099798-1.87906934-4.168125-2.74620482-7.009483-1.51004032-4.9479677-2.46943305-10.1594685-2.55465725-11.8705717-.26808386-5.35547177 1.17369435-9.18559594 4.2843774-11.38280803 4.90701045-3.46605965 12.34178701-1.42771209 15.05241281-.50224354 1.82115-1.09757177 3.9637524-1.63167096 6.3847814-1.59319596 1.3002895.02109919 2.5385226.13528306 3.6886355.34048306 1.199758-.37730322 3.5694871-.91884919 6.2821814-.88492499 4.9980266.05957419 9.1396741 2.00731934 11.9764814 5.63265722 2.0246951 2.58651289 1.0235177 8.01810724.2469847 11.02577654-1.093021 4.2305951-3.0080831 8.7301016-5.3604363 12.6471048.6387677.0045508 1.5642363-.0719855 2.879833-.3437928 2.5956145-.535754 3.3547718.8559654 3.5607992 1.4790121.8253508 2.4996339-2.7623395 4.3886323-3.8814242 4.9082516-1.4339177.6656589-3.7717911 1.0710944-5.6864394.9833879l-.0835694-.0053782-.503071-.044267-.0496451.4195017-.0479903.4099862c-.1286638 4.9641024-.8377621 8.1078823-2.2969162 10.1851185-1.5294846 2.1777678-3.6551249 2.7879895-5.5275749 3.1892879-.6387678.1365242-1.2192024.1960984-1.7454411.1960984zm-3.801992-18.0671152c1.1662476.933329 1.2684339 2.6895266 1.3598637 5.9714854.0115839.4095726.0223404.7972186.0368202 1.1592145.0438532 1.0963307.1468669 3.6633992.5489927 4.748146.0566783.1534863.1075646.3090411.1613468.4741113.4480476 1.3718613.6726919 2.0598604 2.6100944 1.6457371 1.6262927-.3487573 2.4623999-.6615218 3.1168886-1.593196.9511186-1.3544855 1.4831492-4.0791774 1.5807847-8.0983669l1.9787734.0479903-1.965121-.2358145.0579194-.4906597c.1882379-1.6176048.3239347-2.7859209 1.404958-3.5587306.8675492-.6197371 1.8559016-.5597492 2.6431912-.4178468-.865067-.6536612-1.1041912-1.4202653-1.1679025-1.7346846l-.1650701-.8129395.4637685-.6879992c2.6713234-3.9633387 4.8739137-8.8343564 6.0438847-13.3644774 1.2022403-4.6546475.8356935-7.12656282.4691467-7.59405476-4.8524007-6.20026689-13.2668418-3.64023143-14.1455612-3.34980723l-.1485217.08025967-.7446774.13859274-.3814404-.07901854c-1.05165-.21843871-2.2199661-.33924194-3.4722653-.35951371-1.9676032-.03309678-3.5550072.4319129-4.8565378 1.41943789l-.9031283.68468952-1.0479266-.4314992c-2.2389967-.91553951-8.8153257-2.75613385-12.28552248-.29828467-1.92623225 1.36441451-2.80371047 4.03780639-2.6084395 7.94612169.06453871 1.2903605.94118951 6.1750306 2.38751853 10.9124201 1.99863144 6.5469556 3.81481695 8.7218274 4.57314675 8.974604.1323871.0446807.4757661-.2221621.8174903-.6325621 2.221621-2.6721508 4.3352637-4.8999774 4.4242113-4.9934758l1.1459758-1.2059637 1.3855137.9205041c.558508.3710975 1.1745217.5816758 1.8070838.6213919l3.3042992-2.8181903-.4786621 4.8850838c-.0107564.1096331-.0161347.2589823.0268912.5361678l.1439709.9258822-.6247016.698342-.0719855.0810871 1.8153581.837762z" fill="#000"/><path d="m46.2241957 31.2102579c-5.7609072 1.1885879-6.1568274-.7620532-6.1568274-.7620532 6.0827734-9.0254903 8.625433-20.48276605 6.4311169-23.28647652-5.986379-7.64866447-16.3493926-4.03160078-16.5223233-3.93768868l-.0558508.00992903c-1.1381153-.23622822-2.4119274-.37688951-3.8437766-.40005726-2.6067846-.04261209-4.5839032.68344839-6.0844282 1.82114999 0 0-18.48620308-7.61556769-17.62651438 9.57779264.18285968 3.658021 5.242529 27.6767636 11.27772578 20.4219507 2.2058999-2.6527064 4.3369185-4.8958403 4.3369185-4.8958403 1.058683.7028928 2.3258758 1.0619928 3.6542975.9329154l.1034275-.0877065c-.0322694.3293129-.0173758.6515927.0413709 1.0330331-1.5547209 1.7371669-1.0979854 2.0420709-4.2061862 2.6816661-3.145021.6478693-1.2973936 1.8017056-.0910162 2.1033 1.46205.3657193 4.8453678.8836838 7.1311137-2.3159468l-.0914298.3648919c.6093943.4881775 1.0371701 3.1739807.9655983 5.6086621-.0719854 2.4346814-.1199758 4.1064822.3603412 5.41215.4799032 1.3056677.9581516 4.2430064 5.0439483 3.3675967 3.4139323-.7314387 5.1829548-2.6274701 5.4295258-5.7898669.1745855-2.2485121.5696782-1.9158895.5949145-3.9261048l.3173153-.9515322c.3657194-3.0477992.0579194-4.0307734 2.1616331-3.5736242l.5109314.0446806c1.5481016.0703307 3.5740379-.2490532 4.7634532-.8017693 2.5608629-1.1877605 4.0795911-3.1719121 1.554721-2.6510516z" fill="#336791"/><path d="m29.7693071 49.7721699c-3.4056581 0-4.4846129-2.6969734-4.9260411-3.7999234-.6462145-1.6163637-.7856347-7.8890298-.6416637-13.0330959.009929-.3644782.3119371-.6524201.6784838-.64125.3644783.009929.6515928.313592.64125.6780702-.1658975 5.9330104.0695033 11.3095814.5477517 12.5060297.7463322 1.865417 1.8782419 3.4970879 5.0782862 2.811571 3.0378702-.6515927 4.1755718-1.8033605 4.6823661-4.7411129.3888871-2.254304 1.1579734-8.6676314 1.2527129-9.9331693.0273048-.3632371.3425516-.6366992.7074436-.6089806.363237.0273048.6358717.3442064.6089806.7074435-.0988766 1.3176653-.8642395 7.7185814-1.2680202 10.0593508-.5982241 3.469783-2.1450846 5.0435346-5.7067112 5.8072427-.6052573.1294911-1.1550774.1874105-1.6548387.1878242zm-18.4663451-13.1729298c-.3247621 0-.6197371-.0599879-.8754096-.1447984-2.21210567-.738058-4.31912905-4.3406419-6.2627371-10.7088749-1.4794258-4.8474363-2.41689192-9.9071056-2.49922015-11.5516016-.243675-4.87515477 1.01152016-8.32425233 3.73166127-10.25089829 5.38112178-3.81274836 14.43350318-.18203225 14.81618458-.02565.3371734.13776532.4993476.52334274.3611686.86092984-.1377654.33717338-.5233428.49893386-.8605162.36158225-.0872927-.03557903-8.7677491-3.51322256-13.5564386-.11790726-2.32587579 1.64904677-3.39366046 4.71298062-3.17398062 9.10616366.06908951 1.3855137.94491289 6.3235524 2.44336934 11.231804 1.73509837 5.6851983 3.70973465 9.2724749 5.41794188 9.8421531.2680839.0893613 1.0839194.3611686 2.2501669-1.0413072 2.1947299-2.6402952 4.2107371-4.7477322 4.2310089-4.7684177.2523629-.2631194.6702097-.2718073.933329-.0194444.2631194.2523629.272221.6702097.0198581.9329153-.0198581.0206855-2.0052508 2.096267-4.1689524 4.6993282-1.0247589 1.2324412-2.0069056 1.5940234-2.8074339 1.5940234zm28.7234491-5.5623266c-.1270089 0-.2552589-.0364064-.3686154-.112529-.302008-.2039589-.3822677-.6139452-.1783088-.9163669 6.1489669-9.1243669 8.3072902-20.14931604 6.4588354-22.51159829-2.3267032-2.97291772-5.6119717-4.52557013-9.7652032-4.61534513-3.075104-.06619355-5.5193007.71902741-5.9189443.85596531l-.1005314.04095726c-.4017121.12618145-.7099258-.09391209-.8261782-.35123951-.1377654-.30449032-.0248226-.66441774.2610508-.83776209.0190306-.01117017.0794322-.03682016.1774814-.07281291l-.0086879.00248226.0086879-.00289597c.6788976-.24863951 3.1603282-.99290322 6.2337774-.95773789 4.5954871.04881774 8.391687 1.82073628 10.9773725 5.12503545 1.2233395 1.56340886 1.2262355 5.16516531.0078605 9.88228301-1.2419565 4.809375-3.5790024 9.9778499-6.4112588 14.1807265-.1265952.1890653-.3351049.2908379-.5473379.2908379zm.3144193 4.2239758c-1.0499951 0-1.9911847-.1481081-2.5546572-.4856951-.5791936-.3471025-.6896541-.8187315-.7041339-1.0690258-.1580371-2.775992 1.3735161-3.2592049 2.1546-3.4797121-.1088057-.1646565-.2635331-.3582726-.4236387-.5580944-.4554944-.5692645-1.0793686-1.3486935-1.5600992-2.5145274-.0752952-.1820322-.3111097-.6052572-.5841581-1.0955032-1.4806669-2.6551887-4.5615628-8.1802814-2.5823758-11.0096419.9159533-1.3093911 2.7399992-1.8248733 5.4274573-1.5373451-.7905992-2.4086178-4.5553573-9.94309835-13.4885903-10.08955158-2.6866306-.04468064-4.8900483.78149758-6.5457145 2.45329837-3.7068386 3.74365885-3.5727967 10.51732741-3.5707282 10.58517571.0095154.3644783-.2780129.6677275-.6424911.6772428-.3644782.0115838-.6673137-.2780129-.6772427-.6424911-.0082742-.300767-.1464532-7.40912662 3.9525822-11.54911934 1.9183718-1.9374024 4.4436556-2.89389917 7.5055209-2.8438403 5.7149855.09391209 9.3936919 2.99939514 11.4729967 5.42001045 2.2667154 2.63822659 3.3779395 5.54826049 3.4693694 6.51965079.0682621.7223371-.4501161.8667217-.5547847.8882347l-.2382968.0053782c-2.6373991-.4223976-4.3294717-.1290774-5.0290548.8704451-1.5054895 2.1517041 1.4090952 7.3780984 2.6535339 9.6100621.317729.5692645.5469242.9809056.6520064 1.2349234.4087452.9912483.942017 1.6573209 1.3702065 2.1926612.3768895.4708016.7033064.8791331.8199725 1.3582089.054196.0951532.8232823 1.2328548 5.3869137.2908379 1.1439073-.2358145 1.8298379-.0343379 2.0395887.599879.4124686 1.2473347-1.9018234 2.7023516-3.1830822 3.2972661-1.1480444.5336855-2.9803645.8712726-4.5657.8712726zm-1.9427806-1.6635266c.1447984.1460395.869204.3979887 2.3693153.33345 1.3338-.0570919 2.7404129-.3471024 3.5843806-.7388855 1.0793686-.5014161 1.8000508-1.0619927 2.1732169-1.4446742l-.2068548.0380613c-2.9178943.6023613-4.9818919.5221016-6.1344871-.2387105-.0823282-.0541959-.1563822-.1104604-.2234032-.1658975-.1249403.0492314-.2403653.0815008-.3226935.1046685-.6536613.1832734-1.3296629.3731661-1.2394742 2.1119879zm-18.8494402 3.6882218c-.7248194 0-1.4877-.0988767-2.2667153-.2937339-.8071476-.2018903-2.1678387-.8096298-2.1471533-1.8079113.0235815-1.1199121 1.6523565-1.4558443 2.2654742-1.5820258 2.2150016-.4563218 2.3593863-.6391814 3.0515226-1.5183145.2018903-.2560863.4530121-.5750564.7955637-.9573242.5084492-.5692645 1.0640613-.8576201 1.651529-.8576201.4091589 0 .7446774.1385927.9664258.23085.7066161.2929064 1.2961524 1.0011774 1.5385863 1.8480411.2188524.7641217.1141839 1.4996976-.2937339 2.0710306-1.3391782 1.875346-3.2625145 2.8670081-5.5614991 2.8670081zm-2.9878113-2.044967c.1989943.1539.5978105.3595137 1.041721.4703879.6747604.1687936 1.3292491.2544315 1.946504.2544315 1.8807242 0 3.3907645-.7786016 4.4875088-2.3142919.2287815-.3202113.1601057-.7268879.0988766-.9407758-.12825-.4480476-.4468064-.8555516-.7748782-.9916621-.1778952-.0736403-.3255895-.1299049-.4612863-.1299049-.0728129 0-.2945613 0-.6677274.4174331-.3152468.3520669-.5423734.6404226-.7421952.8944403-.8621709 1.0946758-1.2572637 1.4661871-3.8222636 1.9944944-.6259428.12825-.9469815.2589822-1.1062597.3454475zm5.075804-3.0449032c-.3202113 0-.6015339-.2337459-.6515927-.5601629-.0165484-.109633-.0273049-.2196798-.0330968-.330554-1.6813161-.0314419-3.3034718-.7529516-4.5350855-2.0379339-1.5572032-1.6246379-2.2658879-3.8756322-1.9440217-6.1754443.3495846-2.4975653.2188524-4.7022241.1485217-5.8866749-.0194443-.3293129-.0335104-.567196-.032683-.7318525.0012411-.2089233.0053782-.7628806 1.8571427-1.7015879.6586258-.3338637 1.9791871-.9163669 3.4217927-1.0657161 2.3900008-.2469847 3.9654073.8174903 4.4370363 2.9977403 1.2729847 5.8862613.1009451 8.4897363-.7550202 10.3911459-.1592782.3541355-.3098685.6884129-.430258 1.0123476l-.1063234.2854597c-.4521847 1.212583-.8431403 2.2600959-.7231645 3.0424209.0554371.3603412-.1919613.6971008-.5523024.7525379zm-5.7236734-15.5397628.02565.4712153c.0728129 1.2303726.2085097 3.519842-.1588645 6.1477258-.2651879 1.8968589.3140057 3.7482097 1.5898863 5.0787 1.0082105 1.05165 2.3349774 1.6320846 3.6985645 1.6320846h.0281323c.1526588-.6433185.4062629-1.3226298.6793112-2.0544822l.105496-.2838048c.1361105-.3657194.2953887-.7198549.4641823-1.0946758.8236959-1.8302516 1.8492822-4.1085508.6681411-9.5699322-.233746-1.0818508-.8009419-1.7077936-1.7330298-1.9142347-1.9146484-.4228113-4.768004 1.0173121-5.3674694 1.587404zm3.9840242-.2800814c-.0330968.2333322.4273621.856379 1.0280686.9395346.5994653.0839831 1.1124653-.4033669 1.1451483-.6366992.0326831-.2333322-.4273621-.4906596-1.0280685-.574229-.6002927-.0835693-1.1132927.0380613-1.1451484.2713936zm1.1658339 1.1691435-.1683799-.0115839c-.3723387-.0517137-.7488145-.2862871-1.0065556-.6280113-.0906024-.1199758-.2382968-.3524806-.2089234-.5601629.0417847-.3044903.413296-.4869362.9929032-.4869362.1294912 0 .2643605.0095153.4000573.0285459.3169016.0438533.6110492.1352831.8282468.2565.3764758.2101645.4041943.4447379.3872322.5659549-.0463355.3363459-.5812621.8356935-1.2245806.8356935zm-.9469815-1.1302548c.018617.1439709.3752347.6189096.839417.6830346l.1079782.0074468c.4286032 0 .7488145-.3371734.7864621-.4476338-.0397162-.0752952-.3152468-.262292-.8377621-.3351049-.1158387-.0165484-.2300226-.0244089-.3396557-.0244089-.3359322 0-.5142411.0757089-.5564395.1166662zm18.0398104-.5150686c.0326831.2333323-.4273621.8563791-1.0276548.9399484-.5998791.0835694-1.1132928-.4033669-1.1463895-.6366992-.031442-.2333322.4286032-.4910734 1.0284822-.574229.599879-.0839831 1.1124653.0380613 1.1455621.2709798zm-1.1662476 1.0590968c-.5775387 0-1.0760588-.4492887-1.1170161-.740954-.0475766-.3499984.528721-.6160137 1.1219806-.698342.1307323-.0182032.2602234-.0273048.38475-.0273048.5121726 0 .8514146.1501766.8853388.3926105.0219266.1567959-.098463.3988161-.3057315.6172548-.1369379.1435573-.4244661.3921968-.8162492.4463928zm.3901283-1.2465073c-.1141839 0-.2333323.008688-.3541355.0252363-.5961557.0831557-.951946.3222799-.9345702.4505299.0198581.141075.400471.5510613.8989911.5510613l.1228718-.0086879c.3255895-.0450944.5700919-.2577412.6867581-.3801992.1832734-.192375.2560863-.3735799.2473984-.4352226-.0115839-.0819145-.2316775-.2027178-.6673137-.2027178zm1.6403588 13.5874669c-.1261814 0-.253604-.0364064-.3665468-.1117016-.3028354-.2027178-.3843362-.612704-.1812048-.9155395 1.4057855-2.0995766 1.1484581-4.2405242.8998186-6.3111411-.1063234-.882029-.2155428-1.7942589-.1874105-2.6696685.0289596-.900646.1435572-1.6436686.2540177-2.3622823.131146-.8514145.2552589-1.6556661.2039589-2.610508-.0198581-.3640646.2593959-.6747605.6234605-.6946186.3653056-.0194443.6751741.259396.6946185.6234605.0587468 1.0913661-.0815008 2.0015274-.2171976 2.8823153-.1046685.679725-.2130605 1.3826177-.2391242 2.2038314-.0252363.775292.0736404 1.5985742.1783089 2.4698468.2647742 2.2017629.5647137 4.6972597-1.1132927 7.2030992-.1274226.1898927-.336346.2929064-.5494065.2929064z" fill="#fff"/></g></g></svg>